# File created by Blade
# Date/Time:  Tue Jan 27 18:55:59 2015
#---------------------------------------------------------
:version 1.10
:name HOM
:units
  mass 1.0
  length 1.000000
  angle deg
:documentation
     Acclaim Skeleton File
:root
   axis xyz
   order TX TY TZ RX RY RZ
   position 0.000000 0.000000 0.000000
   orientation 0 0 0
:bonedata
   begin
      id 1
      name Spine_dum
      direction 0.000000 1.000000 0.000000
      length 5.195262
      axis 0.0 0.0 0.0 xyz
   end
   begin
      id 2
      name LeftUpLeg_dum
      direction 1.000000 0.000000 0.000000
      length 3.351363
      axis 0.0 0.0 0.0 xyz
   end
   begin
      id 3
      name RightUpLeg_dum
      direction -1.000000 0.000000 0.000000
      length 3.351363
      axis 0.0 0.0 0.0 xyz
   end
   begin
      id 4
      name Spine
      direction 0.000000 1.000000 0.000000
      length 0.000000
      axis 0.0 0.0 0.0 xyz
      dof rx ry rz
   end
   begin
      id 5
      name Spine_dum1
      direction 0.000000 1.000000 0.000000
      length 15.653875
      axis 0.0 0.0 0.0 xyz
   end
   begin
      id 6
      name Spine_dum2
      direction 0.000000 1.000000 0.000000
      length 10.329768
      axis 0.0 0.0 0.0 xyz
   end
   begin
      id 7
      name Spine_dum3
      direction 0.000000 1.000000 0.000000
      length 10.329768
      axis 0.0 0.0 0.0 xyz
   end
   begin
      id 8
      name Head
      direction 0.000000 1.000000 0.000000
      length 4.527550
      axis 0.0 0.0 0.0 xyz
      dof rx ry rz
   end
   begin
      id 9
      name LeftShoulder
      direction 1.000000 0.000000 0.000000
      length 6.996006
      axis 0.0 0.0 -90.0 xyz
      dof rx ry rz
   end
   begin
      id 10
      name LeftArm
      direction 1.000000 0.000000 0.000000
      length 10.209302
      axis 0.0 0.0 -90.0 xyz
      dof rx ry rz
   end
   begin
      id 11
      name LeftForeArm
      direction 1.000000 0.000000 0.000000
      length 8.563163
      axis 0.0 0.0 -90.0 xyz
      dof ry rz rx
   end
   begin
      id 12
      name LeftHand
      direction 0.000000 0.000000 0.000000
      length 0.000000
      axis 0.0 0.0 -90.0 xyz
      dof rx ry rz
   end
   begin
      id 13
      name LeftHand_dum1
      direction 0.000000 0.000000 0.000000
      length 0.000000
      axis 0.0 0.0 -90.0 xyz
   end
   begin
      id 14
      name LeftHand_dum2
      direction 1.000000 0.000000 0.000000
      length 3.937000
      axis 0.0 0.0 -90.0 xyz
   end
   begin
      id 15
      name LeftHandThumb1
      direction 0.000000 0.000000 1.000000
      length 3.937000
      axis 0.0 0.0 -90.0 xyz
      dof rx rz ry
   end
   begin
      id 16
      name RightShoulder
      direction -1.000000 0.000000 0.000000
      length 6.996006
      axis 0.0 0.0 90.0 xyz
      dof rx ry rz
   end
   begin
      id 17
      name RightArm
      direction -1.000000 0.000000 0.000000
      length 10.209302
      axis 0.0 0.0 90.0 xyz
      dof rx ry rz
   end
   begin
      id 18
      name RightForeArm
      direction -1.000000 0.000000 0.000000
      length 8.563163
      axis 0.0 0.0 90.0 xyz
      dof ry rz rx
   end
   begin
      id 19
      name RightHand
      direction 0.000000 0.000000 0.000000
      length 0.000000
      axis 0.0 0.0 90.0 xyz
      dof rx ry rz
   end
   begin
      id 20
      name RightHand_dum1
      direction 0.000000 0.000000 0.000000
      length 0.000000
      axis 0.0 0.0 90.0 xyz
   end
   begin
      id 21
      name RightHand_dum2
      direction -1.000000 0.000000 0.000000
      length 3.937000
      axis 0.0 0.0 90.0 xyz
   end
   begin
      id 22
      name RightHandThumb1
      direction 0.000000 0.000000 1.000000
      length 3.937000
      axis 0.0 0.0 90.0 xyz
      dof rx rz ry
   end
   begin
      id 23
      name LeftUpLeg
      direction 0.000000 -1.000000 0.000000
      length 16.346831
      axis 0.0 0.0 0.0 xyz
      dof rx ry rz
   end
   begin
      id 24
      name LeftLeg
      direction 0.000000 -1.000000 0.000000
      length 13.959795
      axis 0.0 0.0 0.0 xyz
      dof rx ry rz
   end
   begin
      id 25
      name LeftFoot
      direction 0.000000 -0.258819 0.965926
      length 5.165550
      axis 15.0 0.0 0.0 xyz
      dof rx ry rz
   end
   begin
      id 26
      name LeftToeBase
      direction 0.000000 0.000000 1.000000
      length 2.952750
      axis 0.0 0.0 0.0 xyz
      dof rx ry rz
   end
   begin
      id 27
      name RightUpLeg
      direction 0.000000 -1.000000 0.000000
      length 16.346831
      axis 0.0 0.0 0.0 xyz
      dof rx ry rz
   end
   begin
      id 28
      name RightLeg
      direction 0.000000 -1.000000 0.000000
      length 13.959795
      axis 0.0 0.0 0.0 xyz
      dof rx ry rz
   end
   begin
      id 29
      name RightFoot
      direction 0.000000 -0.258819 0.965926
      length 5.165550
      axis 15.0 0.0 0.0 xyz
      dof rx ry rz
   end
   begin
      id 30
      name RightToeBase
      direction 0.000000 0.000000 1.000000
      length 2.952750
      axis 0.0 0.0 0.0 xyz
      dof rx ry rz
   end
:hierarchy
   begin
      root Spine_dum LeftUpLeg_dum RightUpLeg_dum
      Spine_dum Spine
      LeftUpLeg_dum LeftUpLeg
      RightUpLeg_dum RightUpLeg
      Spine Spine_dum1 Spine_dum2 Spine_dum3
      Spine_dum1 Head
      Spine_dum2 LeftShoulder
      Spine_dum3 RightShoulder
      LeftShoulder LeftArm
      LeftArm LeftForeArm
      LeftForeArm LeftHand
      LeftHand LeftHand_dum1 LeftHand_dum2
      LeftHand_dum1 LeftHandThumb1
      RightShoulder RightArm
      RightArm RightForeArm
      RightForeArm RightHand
      RightHand RightHand_dum1 RightHand_dum2
      RightHand_dum1 RightHandThumb1
      LeftUpLeg LeftLeg
      LeftLeg LeftFoot
      LeftFoot LeftToeBase
      RightUpLeg RightLeg
      RightLeg RightFoot
      RightFoot RightToeBase
   end

# File created by Blade
# Date/Time:  Tue Jan 27 18:55:50 2015
# Frame Rate: 120.000 fps
#------------------------------------------------------
:FULLY-SPECIFIED
:DEGREES
1466
root -0.013063 31.668406 -4.595726 3.682463 -13.057580 -6.504154
Spine 4.075099 -7.598511 1.548674
Head 11.064699 -18.074939 8.569984
LeftShoulder -15.685677 19.182460 14.224291
LeftArm 0.202366 -38.347542 -77.016002
LeftForeArm -3.861125 0.000000 100.003783
LeftHand -9.109287 -0.000000 20.190165
LeftHandThumb1 -26.253704 0.000000 33.147579
RightShoulder -13.326014 -3.947868 -7.255039
RightArm 5.814275 -26.897834 78.643802
RightForeArm -26.590866 -0.000000 28.418318
RightHand -14.930239 0.000000 10.525550
RightHandThumb1 -24.326973 -0.000000 -32.862282
LeftUpLeg -4.413201 11.659250 -6.117471
LeftLeg 13.874540 -0.000000 -0.000000
LeftFoot -33.182129 29.712149 -24.695677
LeftToeBase 8.671855 -0.000000 -0.000000
RightUpLeg -56.782002 -32.777678 13.751417
RightLeg 80.808182 -0.000000 -0.000000
RightFoot -19.297058 -8.838918 36.067208
RightToeBase 8.092872 -0.000000 -0.000000
1467
root -0.022785 31.671678 -4.596994 3.698758 -13.192011 -6.501071
Spine 4.052919 -7.634265 1.462247
Head 10.876113 -18.138277 8.693830
LeftShoulder -15.710761 19.288117 14.210849
LeftArm 0.420126 -38.289089 -77.096184
LeftForeArm -3.675695 0.000000 99.983217
LeftHand -9.037035 -0.000000 20.072078
LeftHandThumb1 -26.253704 0.000000 33.147579
RightShoulder -13.299284 -3.933361 -7.201166
RightArm 5.788305 -27.066216 78.793584
RightForeArm -26.546740 0.000000 28.092767
RightHand -14.762138 -0.000000 10.631420
RightHandThumb1 -24.326973 -0.000000 -32.862282
LeftUpLeg -4.383380 11.695976 -6.116441
LeftLeg 13.778705 -0.000000 -0.000000
LeftFoot -33.185766 29.797008 -24.746308
LeftToeBase 8.662190 -0.000000 -0.000000
RightUpLeg -56.635408 -32.563616 13.449069
RightLeg 80.381899 -0.000000 -0.000000
RightFoot -19.260037 -8.766777 36.176030
RightToeBase 7.975602 -0.000000 -0.000000
1468
root -0.034533 31.675130 -4.600283 3.720131 -13.363954 -6.510943
Spine 4.032500 -7.632951 1.370730
Head 10.697384 -18.206890 8.856470
LeftShoulder -15.861185 19.466438 14.160877
LeftArm 0.869842 -38.154854 -77.304794
LeftForeArm -3.562990 -0.000000 99.926928
LeftHand -8.981304 -0.000000 20.042282
LeftHandThumb1 -26.253704 0.000000 33.147579
RightShoulder -13.238408 -3.901292 -7.137860
RightArm 5.733676 -27.221023 78.941806
RightForeArm -26.506324 -0.000000 27.747593
RightHand -14.707578 -0.000000 10.805116
RightHandThumb1 -24.326973 -0.000000 -32.862282
LeftUpLeg -4.357580 11.804647 -6.102539
LeftLeg 13.674110 -0.000000 -0.000000
LeftFoot -33.172097 29.873658 -24.755873
LeftToeBase 8.632885 -0.000000 -0.000000
RightUpLeg -56.542062 -32.339050 13.260699
RightLeg 79.958965 -0.000000 -0.000000
RightFoot -19.276649 -8.989391 36.081087
RightToeBase 7.940144 -0.000000 -0.000000
1469
root -0.044354 31.676911 -4.603923 3.746832 -13.530585 -6.519769
Spine 4.010600 -7.632529 1.301188
Head 10.506835 -18.239972 8.975266
LeftShoulder -15.810402 19.370716 14.186437
LeftArm 0.768716 -38.119094 -77.177265
LeftForeArm -3.564360 -0.000000 99.972659
LeftHand -9.008095 -0.000000 20.009559
LeftHandThumb1 -26.253704 0.000000 33.147579
RightShoulder -13.172118 -3.852026 -7.112461
RightArm 5.660910 -27.357163 79.130512
RightForeArm -26.435465 0.000000 27.394559
RightHand -14.674893 -0.000000 10.862330
RightHandThumb1 -24.326973 -0.000000 -32.862282
LeftUpLeg -4.347861 11.903347 -6.097628
LeftLeg 13.592173 -0.000000 -0.000000
LeftFoot -33.165125 29.950360 -24.743915
LeftToeBase 8.661437 -0.000000 -0.000000
RightUpLeg -56.446252 -32.120252 13.047179
RightLeg 79.576448 -0.000000 -0.000000
RightFoot -19.251728 -9.063229 36.116147
RightToeBase 8.222770 -0.000000 -0.000000
1470
root -0.055694 31.678411 -4.606672 3.768544 -13.692328 -6.544856
Spine 3.997877 -7.639530 1.239621
Head 10.316535 -18.276675 9.120586
LeftShoulder -15.785578 19.276898 14.224560
LeftArm 0.719584 -38.112809 -77.121483
LeftForeArm -3.446604 -0.000000 99.995571
LeftHand -9.046651 -0.000000 20.098719
LeftHandThumb1 -26.253704 0.000000 33.147579
RightShoulder -13.104419 -3.718403 -7.104202
RightArm 5.503456 -27.559682 79.340735
RightForeArm -26.467214 -0.000000 27.038491
RightHand -14.582516 0.000000 10.896700
RightHandThumb1 -24.326973 -0.000000 -32.862282
LeftUpLeg -4.319768 12.000535 -6.077438
LeftLeg 13.485227 -0.000000 -0.000000
LeftFoot -33.154532 30.079146 -24.687514
LeftToeBase 8.707258 -0.000000 -0.000000
RightUpLeg -56.376712 -31.935427 12.928087
RightLeg 79.175663 -0.000000 -0.000000
RightFoot -19.262020 -9.340740 35.865462
RightToeBase 8.163550 -0.000000 -0.000000
1471
root -0.064778 31.679471 -4.611616 3.816964 -13.827701 -6.561036
Spine 3.956428 -7.677018 1.193751
Head 10.138672 -18.290861 9.220883
LeftShoulder -15.749231 19.104313 14.221639
LeftArm 0.563883 -38.100080 -76.941572
LeftForeArm -3.388404 -0.000000 100.066004
LeftHand -9.140394 -0.000000 20.128485
LeftHandThumb1 -26.253704 0.000000 33.147579
RightShoulder -13.056638 -3.649993 -7.113300
RightArm 5.462114 -27.781323 79.522792
RightForeArm -26.401692 -0.000000 26.622787
RightHand -14.589109 0.000000 10.941033
RightHandThumb1 -24.326973 -0.000000 -32.862282
LeftUpLeg -4.342866 12.026172 -6.078106
LeftLeg 13.412018 -0.000000 -0.000000
LeftFoot -33.153948 30.253882 -24.625691
LeftToeBase 8.707673 -0.000000 -0.000000
RightUpLeg -56.329196 -31.763535 12.776671
RightLeg 78.797479 -0.000000 -0.000000
RightFoot -19.255460 -9.385662 35.962340
RightToeBase 8.304476 -0.000000 -0.000000
